# xmcd CD database file
#
# Track frame offsets:
#	150
#	16062
#	31950
#	49547
#	62547
#	79625
#	97080
#	110340
#	124457
#	143687
#	162207
#	176402
#	196727
#	217205
#	230235
#	242692
#	257312
#	274990
#	286340
#	308022
#	322297
#
# Disc length: 4569 seconds
#
# Revision: 3
# Processed by: cddbd v1.5.1PL0 Copyright (c) Steve Scherf et al.
# Submitted via: CDex 1.51
#
DISCID=2911d715
DTITLE=BMG - FINE 3-TV HITS and wonderful music-
DYEAR=2004
DGENRE=Disco
TTITLE0=001 Don't Stop Me Now/QUEEN
TTITLE1=002 Sugar Baby Love/RUBETTES
TTITLE2=003 Girls Just Want To Have Fun/CYNDI LAUPER
TTITLE3=004 You Can't Hurry Love/PHIL COLLINS
TTITLE4=005 The One/BACKSTREET BOYS
TTITLE5=006 Dancing Queen/ABBA
TTITLE6=007 Rock And Roll Love Letter/BAY CITY ROLLERS
TTITLE7=008 Hold On Tight/ELECTRIC LIGHT ORCHESTRA
TTITLE8=009 Leave A Light On/BELINDA CARLISLE
TTITLE9=010 Sometimes/BRITNEY SPEARS
TTITLE10=011 Let's Hang On/BARRY MANILOW
TTITLE11=012 Nothing's Gonna Stop Us Now/STARSHIP
TTITLE12=013 Maneater/DARYL HALL and JOHN OATES
TTITLE13=014 Sky High/JIGSAW
TTITLE14=015 New York City Nights/LEIF GARRETT
TTITLE15=016 Right Back Where We Started From/SINITTA
TTITLE16=017 Mr.Bojangles/NILSSON
TTITLE17=018 La Plus Belle Pour Aller Danser(Du Film"Cherchez L'ldole")/SYLVIE VARTAN
TTITLE18=019 Aquarius/THE 5TH DIMENSION
TTITLE19=020 Hang On In There Baby/CURIOSITY
TTITLE20=021 All By Myself/CARMEN
EXTD=YEAR: 2004
EXTT0=
EXTT1=
EXTT2=
EXTT3=
EXTT4=
EXTT5=
EXTT6=
EXTT7=
EXTT8=
EXTT9=
EXTT10=
EXTT11=
EXTT12=
EXTT13=
EXTT14=
EXTT15=
EXTT16=
EXTT17=
EXTT18=
EXTT19=
EXTT20=
PLAYORDER=
